<svg xmlns="http://www.w3.org/2000/svg" xmlns:xlink="http://www.w3.org/1999/xlink" width="748" height="576" viewBox="0 0 748 576">
  <defs>
    <linearGradient id="linear-gradient" x1="0.34" y1="0.155" x2="0.852" y2="0.736" gradientUnits="objectBoundingBox">
      <stop offset="0" stop-color="#2c2f32"/>
      <stop offset="1" stop-color="#25272a"/>
    </linearGradient>
  </defs>
  <g id="illustration" transform="translate(-937 -262)">
    <circle id="Ellipse_21" data-name="Ellipse 21" cx="281.5" cy="281.5" r="281.5" transform="translate(1122 275)" fill="url(#linear-gradient)"/>
    <g id="man-illustration">
      <path id="Path_48" data-name="Path 48" d="M970.42,735.63c.226,23.706-149.154,25.878-152,0C818.194,711.928,967.574,709.755,970.42,735.63Z" transform="translate(610.42 47.233)" fill="#e6e6e6"/>
      <path id="Path_49" data-name="Path 49" d="M623.966,507.569l-11.1,6.055,7.065,23.213,11.1,1.009,6.056-13.12Z" transform="translate(840 193)" fill="#ffb8b8"/>
      <path id="Path_50" data-name="Path 50" d="M658.28,553.994v11.1l17.157-1.009-.239-9.143Z" transform="translate(840 193)" fill="#ffb8b8"/>
      <path id="Path_51" data-name="Path 51" d="M619.929,374.348l6.055,75.694L645.16,561.058l30.277-4.037-10.092-87.8,4.037-80.739Z" transform="translate(840 193)" fill="#383a3c"/>
      <path id="Path_52" data-name="Path 52" d="M930.248,463.6l-72.666,1.009-8.074,55.508,49.453,23.213,12.111,44.407-61.564,65.6,24.222,30.277s34.314-46.425,59.545-72.666S946.4,504.977,946.4,504.977Z" transform="translate(610.42 47.233)" fill="#383a3c"/>
      <circle id="Ellipse_22" data-name="Ellipse 22" cx="22.203" cy="22.203" r="22.203" transform="translate(1475.067 323.112)" fill="#ffb8b8"/>
      <path id="Path_53" data-name="Path 53" d="M878.777,313.221v22.2l15.139,24.222s23.213-17.157,18.166-21.194-6.055-35.324-6.055-35.324Z" transform="translate(610.42 47.233)" fill="#ffb8b8"/>
      <path id="Path_54" data-name="Path 54" d="M649.2,185.62l-15.139,18.166,6.056,126.155,47.434-1.009,8.074-110.007L685.53,190.666l-6.923-9.419-12.253,18.5Z" transform="translate(840 193)" fill="#d0cde1"/>
      <path id="Path_55" data-name="Path 55" d="M854.555,396.988l-11.1,42.388,11.1,42.388-18.166,24.222-16.148-76.7s12.111-62.573,13.12-69.638,3.028-8.074,3.028-8.074l8.074,1.009Z" transform="translate(610.42 47.233)" fill="#383a3c"/>
      <path id="Path_56" data-name="Path 56" d="M705.714,267.368l7.065,13.121,2.019,22.2-4.037,25.231,14.129,23.213,14.129-63.583L723.881,205.8h-6.056Z" transform="translate(840 193)" fill="#383a3c"/>
      <path id="Path_57" data-name="Path 57" d="M849.509,652.327s-14.129,4.037-19.176,5.046,3.028,20.185,3.028,20.185,5.046,26.24,6.055,31.287,8.074,22.2,17.157,24.222,3.028-35.324,3.028-35.324,4.037-12.111,4.037-16.148-6.055-2.018-6.055-2.018C841.435,677.558,849.509,652.327,849.509,652.327Z" transform="translate(610.42 47.233)" fill="#2f2e41"/>
      <path id="Path_58" data-name="Path 58" d="M882.814,730.039c1.009,6.055-1.009,6.055,15.139,8.074s12.111-11.1,12.111-11.1a84.809,84.809,0,0,0-4.037-18.166c-3.028-8.074-19.176,2.018-19.176,2.018S881.8,723.983,882.814,730.039Z" transform="translate(610.42 47.233)" fill="#2f2e41"/>
      <path id="Path_59" data-name="Path 59" d="M906.053,303.833l.526,8.976s6.512-14.727,7.522-29.865-16.148-18.166-26.24-19.176-27.25,6.055-27.25,14.129,18.166,6.055,25.231,4.037,10.092,15.139,10.092,15.139l4.037,1.009Z" transform="translate(610.42 47.233)" fill="#2f2e41"/>
      <path id="Path_60" data-name="Path 60" d="M643.24,192.767l5.957-7.147,17.157,14.129L649.2,211.86Z" transform="translate(840 193)" fill="#d0cde1"/>
      <path id="Path_61" data-name="Path 61" d="M685.53,190.666l-7.065-9.083-12.111,18.166,15.139,11.1Z" transform="translate(840 193)" fill="#d0cde1"/>
      <path id="Path_62" data-name="Path 62" d="M851.527,411.117l4.037,38.351-8.074,23.213-5.046,22.2s0,21.194,20.185,22.2,37.342-63.582,37.342-63.582,3.028,14.129,5.046,22.2,36.333,40.37,36.333,40.37,8.074-1.009,15.139-17.157-14.129-31.287-14.129-31.287L936.3,446.441l2.018-26.24,14.13-68.629-41.884-21.7L915.11,387.9l-15.139,45.416L877.263,332.9l-7.569,5.551-32.3,13.12Z" transform="translate(610.42 47.233)" fill="#383a3c"/>
    </g>
    <g id="skills">
      <g id="undraw_product_iteration_kjok" transform="translate(937 262)">
        <path id="circle" d="M452.664,563.767c-2-.016-4.014-.029-6-.091l.062-2c1.962.061,3.968.088,5.936.09s3.99-.032,5.987-.1l.064,2C456.7,563.734,454.661,563.767,452.664,563.767Zm-18.019-.845c-3.981-.377-8-.888-11.951-1.518l.315-1.975c3.906.623,7.884,1.129,11.824,1.5Zm36.092-.021-.19-1.99c3.938-.377,7.916-.888,11.822-1.517l.318,1.975c-3.949.636-7.969,1.151-11.95,1.532Zm-59.873-3.778c-3.9-.884-7.821-1.907-11.658-3.041l.567-1.918c3.8,1.122,7.676,2.134,11.533,3.008Zm83.648-.05-.444-1.949c3.866-.882,7.745-1.9,11.53-3.022l.569,1.918c-3.826,1.136-7.747,2.163-11.655,3.054ZM387.768,552.3c-3.762-1.382-7.525-2.9-11.187-4.523l.81-1.828c3.622,1.6,7.345,3.107,11.066,4.475Zm129.833-.078-.691-1.877c3.7-1.362,7.409-2.867,11.028-4.473l.812,1.828C525.091,549.32,521.34,550.841,517.6,552.218Zm-151.887-9.68c-3.54-1.848-7.075-3.84-10.506-5.92l1.037-1.711c3.395,2.06,6.892,4.029,10.395,5.857Zm173.873-.073-.926-1.772c3.494-1.827,6.983-3.8,10.369-5.854l1.039,1.709C546.646,538.628,543.12,540.618,539.587,542.465ZM345.105,530.039c-3.279-2.288-6.528-4.715-9.659-7.211l1.247-1.564c3.1,2.471,6.313,4.871,9.557,7.135Zm215.05-.071-1.146-1.639c3.243-2.267,6.454-4.667,9.544-7.135l1.248,1.563C566.678,525.251,563.432,527.676,560.155,529.967ZM326.268,515.014c-2.964-2.69-5.878-5.51-8.66-8.378l1.436-1.393c2.752,2.838,5.636,5.627,8.569,8.29Zm252.7-.069-1.346-1.48c2.926-2.657,5.807-5.448,8.563-8.293l1.436,1.391C584.838,509.438,581.926,512.258,578.97,514.945ZM309.5,497.726c-2.6-3.043-5.125-6.208-7.521-9.407l1.6-1.2c2.371,3.166,4.874,6.3,7.442,9.308Zm286.228-.083-1.521-1.3c2.567-3.013,5.071-6.148,7.441-9.318l1.6,1.2c-2.4,3.2-4.926,6.373-7.521,9.418ZM295.075,478.452c-2.188-3.351-4.293-6.811-6.258-10.284l1.741-.984c1.943,3.437,4.027,6.86,6.192,10.175Zm315.083-.108-1.676-1.092c2.166-3.321,4.249-6.751,6.193-10.2l1.742.982c-1.965,3.482-4.071,6.949-6.26,10.3ZM283.231,457.505c-1.74-3.6-3.384-7.3-4.886-11l1.853-.752c1.486,3.656,3.113,7.316,4.834,10.877ZM622,457.349l-1.8-.869c1.721-3.566,3.348-7.236,4.836-10.91l1.854.75C625.388,450.034,623.744,453.745,622,457.349ZM274.17,435.208c-1.265-3.8-2.421-7.685-3.436-11.55l1.935-.508c1,3.823,2.147,7.668,3.4,11.425ZM631.059,435l-1.9-.629c1.244-3.753,2.384-7.6,3.385-11.43l1.936.506C633.469,427.316,632.317,431.2,631.059,435ZM268.052,411.914c-.764-3.924-1.411-7.925-1.922-11.893l1.983-.256c.506,3.926,1.146,7.884,1.9,11.766Zm369.1-.22-1.963-.379c.75-3.881,1.386-7.841,1.887-11.77l1.984.254c-.507,3.971-1.149,7.973-1.908,11.895ZM264.973,388.031c-.256-3.986-.389-8.038-.393-12.043l2,0c0,3.963.135,7.972.389,11.916Zm375.228-.224-2-.127c.249-3.94.375-7.949.375-11.913v-.438h2v.432c0,4.013-.128,8.063-.379,12.047ZM266.942,364.072l-2-.123c.248-3.994.627-8.029,1.128-11.994l1.984.25C267.562,356.128,267.187,360.121,266.942,364.072Zm371.236-.656c-.26-3.953-.649-7.944-1.158-11.862L639,351.3c.515,3.96.909,7.993,1.172,11.989Zm-368.247-22.98-1.964-.378c.754-3.925,1.648-7.879,2.655-11.751l1.936.5C271.561,332.64,270.678,336.551,269.931,340.435ZM635.1,339.79c-.762-3.886-1.66-7.794-2.668-11.617l1.934-.51c1.02,3.864,1.927,7.814,2.7,11.742ZM275.93,317.376l-1.9-.627c1.255-3.8,2.653-7.612,4.154-11.331l1.854.749C278.554,309.846,277.171,313.617,275.93,317.376Zm353.095-.624c-1.256-3.754-2.649-7.514-4.143-11.177l1.852-.755c1.51,3.7,2.919,7.5,4.188,11.3Zm-344.161-21.5-1.8-.867c1.735-3.606,3.611-7.205,5.575-10.7l1.743.981C288.435,288.122,286.579,291.682,284.863,295.25Zm335.172-.545c-1.723-3.551-3.585-7.1-5.538-10.542l1.74-.986c1.974,3.48,3.856,7.066,5.6,10.656ZM296.56,274.465l-1.677-1.091c2.181-3.353,4.5-6.68,6.895-9.89l1.6,1.2C301.013,267.856,298.718,271.148,296.56,274.465Zm311.732-.471c-2.164-3.305-4.466-6.587-6.843-9.754l1.6-1.2c2.4,3.2,4.729,6.518,6.917,9.858Zm-297.48-18.641-1.523-1.295c2.59-3.047,5.313-6.051,8.094-8.928l1.438,1.39C316.07,249.367,313.376,252.339,310.812,255.354ZM594,254.941c-2.571-3.006-5.274-5.97-8.032-8.808l1.434-1.394c2.788,2.868,5.52,5.863,8.118,8.9ZM327.374,238.216l-1.347-1.479c2.959-2.7,6.042-5.328,9.16-7.823l1.25,1.562C333.352,232.945,330.3,235.549,327.374,238.216Zm250.011-.363c-2.933-2.655-5.99-5.251-9.09-7.717l1.246-1.565c3.132,2.493,6.223,5.117,9.186,7.8ZM345.973,223.33l-1.147-1.638c3.272-2.293,6.663-4.511,10.078-6.591l1.041,1.708C352.566,218.868,349.211,221.062,345.973,223.33Zm212.758-.318c-3.256-2.266-6.621-4.453-10-6.5l1.035-1.711c3.418,2.068,6.82,4.278,10.11,6.568ZM366.307,210.942l-.929-1.771c3.536-1.854,7.18-3.619,10.831-5.245l.813,1.827C373.41,207.361,369.805,209.107,366.307,210.942Zm172.02-.274c-3.512-1.828-7.131-3.566-10.758-5.166l.808-1.83c3.665,1.617,7.324,3.374,10.874,5.221Zm-150.281-9.4-.694-1.876c3.75-1.387,7.6-2.67,11.429-3.813l.571,1.917C395.559,198.625,391.755,199.895,388.046,201.267ZM516.5,201.04c-3.717-1.36-7.526-2.616-11.32-3.732l.564-1.919c3.835,1.128,7.685,2.4,11.443,3.773Zm-105.62-6.58-.446-1.949c3.891-.892,7.869-1.668,11.824-2.311l.32,1.975C418.663,192.81,414.727,193.578,410.878,194.46Zm82.763-.145c-3.856-.869-7.795-1.624-11.706-2.244l.313-1.976c3.953.627,7.934,1.39,11.832,2.269Zm-59.245-3.67-.193-1.99c3.971-.385,8.015-.648,12.021-.782l.066,2c-3.963.132-7.965.392-11.894.773Zm35.713-.062c-3.935-.368-7.937-.614-11.9-.731l.06-2c4,.119,8.046.368,12.022.739Z" transform="translate(-229.58 -145.767)" fill="#fff"/>
        <g id="react">
          <circle id="react-2" data-name="react" cx="47" cy="47" r="47" transform="translate(169)" fill="#25272a"/>
          <path id="react-brands" d="M36.832,44.8q-.713-.238-1.427-.449c.079-.326.15-.652.22-.978,1.083-5.249.37-9.467-2.035-10.859-2.316-1.33-6.095.053-9.917,3.382-.379.326-.749.669-1.1,1.013-.238-.229-.484-.458-.731-.678-4.007-3.558-8.023-5.055-10.428-3.655C9.107,33.913,8.42,37.885,9.389,42.853c.1.493.2.978.326,1.471-.564.159-1.119.335-1.638.52C3.373,46.473,0,49.044,0,51.7c0,2.748,3.594,5.5,8.482,7.178.4.132.793.264,1.2.379-.132.528-.247,1.048-.352,1.585-.925,4.888-.2,8.763,2.1,10.093C13.81,72.313,17.809,70.9,21.7,67.5c.308-.273.616-.555.925-.854.388.379.793.74,1.2,1.092,3.77,3.241,7.5,4.553,9.794,3.223,2.378-1.374,3.153-5.54,2.149-10.613q-.119-.581-.264-1.189c.282-.079.555-.167.828-.255,5.081-1.682,8.763-4.4,8.763-7.2C45.094,49.036,41.624,46.446,36.832,44.8ZM24.916,37.322c3.276-2.854,6.333-3.972,7.724-3.171,1.488.854,2.061,4.307,1.127,8.843-.062.3-.123.59-.2.881a45.089,45.089,0,0,0-5.927-.934,44.5,44.5,0,0,0-3.752-4.677c.344-.326.678-.634,1.03-.942ZM14.726,56.275c.449.766.907,1.532,1.392,2.281a39.883,39.883,0,0,1-4.087-.661,41.138,41.138,0,0,1,1.436-3.92c.405.775.819,1.541,1.259,2.3Zm-2.669-10.6c1.268-.282,2.616-.511,4.016-.687-.467.731-.925,1.48-1.356,2.237s-.854,1.515-1.251,2.29c-.555-1.312-1.022-2.6-1.409-3.84Zm2.413,6.068c.581-1.215,1.215-2.4,1.885-3.576s1.392-2.308,2.149-3.426c1.321-.1,2.669-.15,4.043-.15s2.73.053,4.043.15q1.123,1.665,2.14,3.408t1.911,3.558q-.885,1.823-1.9,3.594c-.669,1.171-1.383,2.308-2.131,3.435-1.312.1-2.678.141-4.06.141s-2.721-.044-4.016-.123q-1.149-1.678-2.167-3.435c-.678-1.171-1.3-2.36-1.894-3.576Zm15.906,4.509c.449-.775.872-1.559,1.286-2.352a40.887,40.887,0,0,1,1.488,3.9,38.685,38.685,0,0,1-4.139.7c.476-.74.925-1.5,1.365-2.255Zm1.268-6.738c-.414-.775-.837-1.55-1.277-2.308s-.881-1.489-1.348-2.22a40.53,40.53,0,0,1,4.043.7,38.975,38.975,0,0,1-1.418,3.822Zm-9.08-9.908a38.676,38.676,0,0,1,2.607,3.153c-1.744-.079-3.5-.079-5.24,0C20.794,41.629,21.684,40.572,22.565,39.612Zm-10.217-5.4c1.48-.863,4.765.37,8.226,3.435.22.194.44.405.669.616a44.746,44.746,0,0,0-3.778,4.677,46.424,46.424,0,0,0-5.919.916c-.114-.449-.211-.907-.308-1.365-.828-4.263-.282-7.478,1.11-8.279ZM10.19,57.429c-.37-.106-.731-.22-1.092-.344A17.964,17.964,0,0,1,3.55,54.338,3.952,3.952,0,0,1,1.894,51.7c0-1.612,2.783-3.673,6.8-5.073.5-.176,1.013-.335,1.524-.484a46.832,46.832,0,0,0,2.158,5.6,48.141,48.141,0,0,0-2.184,5.681ZM20.46,66.06a16.12,16.12,0,0,1-4.967,3.109,3.9,3.9,0,0,1-3.109.114c-1.4-.81-1.982-3.92-1.189-8.1.1-.493.2-.986.326-1.471a44.061,44.061,0,0,0,5.98.863,46.479,46.479,0,0,0,3.8,4.7C21.023,65.55,20.741,65.814,20.46,66.06Zm2.158-2.14a41.644,41.644,0,0,1-2.669-3.2c.846.035,1.717.053,2.6.053.907,0,1.8-.018,2.678-.062a37.983,37.983,0,0,1-2.607,3.206Zm11.511,2.642a3.914,3.914,0,0,1-1.453,2.757c-1.4.81-4.386-.247-7.61-3.012-.37-.317-.74-.661-1.119-1.013a43.569,43.569,0,0,0,3.717-4.721,43.417,43.417,0,0,0,6.007-.925c.088.361.167.722.238,1.074a16.055,16.055,0,0,1,.22,5.84Zm1.6-9.468c-.247.079-.493.159-.749.229A44.742,44.742,0,0,0,32.737,51.7a44.515,44.515,0,0,0,2.158-5.54c.458.132.9.273,1.321.414,4.1,1.409,6.984,3.506,6.984,5.108,0,1.726-3.074,3.955-7.469,5.408ZM22.547,55.773a4.034,4.034,0,1,1,4.034-4.034,4.034,4.034,0,0,1-4.034,4.034Z" transform="translate(193 -5.012)" fill="#00d8ff"/>
        </g>
        <g id="redux">
          <path id="Path_91" data-name="Path 91" d="M47,0A47,47,0,1,1,0,47,47,47,0,0,1,47,0Z" transform="translate(0 128)" fill="#25272a"/>
          <g id="redux-2" data-name="redux" transform="translate(13.851 140.7)">
            <path id="Path_301" data-name="Path 301" d="M42.1,57.892a3.193,3.193,0,0,0-.341-6.367h-.114a3.181,3.181,0,0,0-3.07,3.3,3.265,3.265,0,0,0,.91,2.1c-1.933,3.809-4.889,6.595-9.323,8.926A15.372,15.372,0,0,1,20.9,67.614a7.905,7.905,0,0,1-5.8-3.355,8.35,8.35,0,0,1-.455-8.812A13.386,13.386,0,0,1,18.51,50.9c-.227-.739-.568-1.99-.739-2.9-8.243,5.969-7.391,14.042-4.889,17.851,1.876,2.842,5.685,4.6,9.892,4.6a13.976,13.976,0,0,0,3.411-.4A21.816,21.816,0,0,0,42.1,57.892Z" transform="translate(0 -14.973)" fill="#764abc"/>
            <path id="Path_302" data-name="Path 302" d="M63.726,45.751c-4.321-5.06-10.688-7.845-17.965-7.845h-.909A3.124,3.124,0,0,0,42.066,36.2h-.114a3.184,3.184,0,1,0,.114,6.368h.114a3.2,3.2,0,0,0,2.786-1.933h1.023A21.667,21.667,0,0,1,58.1,44.33a15.229,15.229,0,0,1,6.026,7.277,7.881,7.881,0,0,1-.114,6.708,8.346,8.346,0,0,1-7.788,4.662,14.539,14.539,0,0,1-5.571-1.194c-.626.569-1.762,1.478-2.558,2.047a17.548,17.548,0,0,0,7.334,1.762c5.458,0,9.494-3.013,11.029-6.026,1.649-3.3,1.535-8.982-2.729-13.815Z" transform="translate(-11.617 -9.881)" fill="#764abc"/>
            <path id="Path_303" data-name="Path 303" d="M30,43.885a3.193,3.193,0,0,0,3.184,3.07H33.3a3.184,3.184,0,1,0-.114-6.368h-.114a.968.968,0,0,0-.4.057A20.83,20.83,0,0,1,29.72,28.024a15.251,15.251,0,0,1,3.354-8.812c1.649-2.1,4.832-3.127,6.993-3.184,6.026-.114,8.584,7.391,8.755,10.4.739.171,1.99.569,2.842.853C50.982,18.075,45.3,13.3,39.84,13.3,34.723,13.3,30,17,28.128,22.453c-2.615,7.277-.909,14.269,2.274,19.784a2.554,2.554,0,0,0-.4,1.649Z" transform="translate(-6.775)" fill="#764abc"/>
          </g>
        </g>
        <g id="javascript">
          <circle id="Ellipse_3" data-name="Ellipse 3" cx="47" cy="47" r="47" transform="translate(351 128)" fill="#25272a"/>
          <g id="g5193" transform="translate(383 39.6)">
            <path id="path5113" d="M-1.35,153.584-5,113.4l39.325.015-3.62,40.138-16.073,4.54Zm29.095-2.193L30.8,116.973h-16.1l.122,37.96ZM13.19,122.019H9.279l-.046,20.6-7.592-2.07.015,4.709,11.534,3.113V122.02Z" transform="translate(0 0)" fill="#d4b830"/>
            <path id="path5159" d="M49.069,196.159c-.506-.153-3.006-.828-5.552-1.518L38.9,193.4v-2.316c0-2.27,0-2.316.23-2.239.122.046,1.81.506,3.742,1.043l3.512.966.031-10.276.031-10.276H50.28v13.067c0,10.383-.031,13.067-.138,13.067-.077-.015-.567-.138-1.074-.276Z" transform="translate(-37.167 -48.174)" fill="rgba(235,235,235,0)" opacity="0.986"/>
            <path id="path5157" d="M38.315,192.921l-.015-4.709s4.847,1.365,7.592,2.07l.046-20.583h3.911v26.334Z" transform="translate(-36.659 -47.665)" fill="rgba(235,235,235,0.92)" opacity="0.986"/>
            <path id="path5117" d="M123.4,136.6h16.1l-3.052,34.417L123.4,174.56Zm12.224,28.65,1.058-12.868-7.822.874v-6.871l8.344-.031.337-4.693-12.592.061.169,17.086,7.607-1.3-.107,3.8-7.669,2.04.076,4.663Z" transform="translate(-108.707 -19.642)" fill="#fdd83c"/>
          </g>
        </g>
        <g id="flutter">
          <circle id="Ellipse_5" data-name="Ellipse 5" cx="47" cy="47" r="47" transform="translate(68 332)" fill="#25272a"/>
          <g id="flutter-2" data-name="flutter" transform="translate(92.71 350.78)">
            <path id="Path_305" data-name="Path 305" d="M37.9,79.09,22.84,64.129l8.323-8.468L54.639,79.09Z" transform="translate(-9.443 -23.218)" fill="#02539a" fill-rule="evenodd"/>
            <g id="Group_63" data-name="Group 63" transform="translate(0.29 0.22)">
              <path id="Path_306" data-name="Path 306" d="M22.52,59.5,37.446,44.57h16.78L31.006,67.79Z" transform="translate(-9.599 -18.793)" fill="rgba(69,209,253,0.85)" fill-rule="evenodd"/>
              <path id="Path_307" data-name="Path 307" d="M.29,27.9l8.474,8.468L44.917.22H28.049Z" transform="translate(-0.29 -0.22)" fill="#45d1fd" fill-rule="evenodd"/>
            </g>
          </g>
        </g>
        <g id="sass">
          <circle id="Ellipse_4" data-name="Ellipse 4" cx="47" cy="47" r="47" transform="translate(294 324)" fill="#25272a"/>
          <path id="sass-1" d="M51.625,26.111a12.383,12.383,0,0,0-5.447,1.268,11.2,11.2,0,0,1-1.221-2.818,7.793,7.793,0,0,1-.106-2.372,19,19,0,0,1,.716-2.559c-.012-.106-.129-.622-1.338-.634s-2.254.235-2.372.552a13.483,13.483,0,0,0-.5,1.8c-.211,1.1-2.418,5.013-3.675,7.068a7.21,7.21,0,0,1-.834-2.066,7.792,7.792,0,0,1-.106-2.371,19.013,19.013,0,0,1,.716-2.559c-.012-.106-.129-.622-1.338-.634s-2.254.235-2.372.552-.247,1.068-.5,1.8-3.182,7.255-3.945,8.958c-.387.869-.728,1.561-.974,2.031s-.012.035-.035.082l-.329.622v.012c-.164.294-.34.575-.423.575a3.915,3.915,0,0,1,.023-1.867c.434-2.266,1.491-5.8,1.479-5.929,0-.059.2-.681-.681-1a1.07,1.07,0,0,0-1.233.211c-.07,0-.129.188-.129.188s.951-3.98-1.82-3.98c-1.738,0-4.133,1.89-5.318,3.616-.751.411-2.348,1.28-4.039,2.207-.646.352-1.315.728-1.949,1.068l-.129-.141c-3.358-3.581-9.568-6.117-9.31-10.93.094-1.749.7-6.363,11.928-11.952,9.193-4.579,16.554-3.322,17.833-.528,1.82,3.992-3.933,11.412-13.489,12.48-3.639.411-5.553-1-6.034-1.526-.5-.552-.575-.575-.763-.47-.305.164-.117.657,0,.951a5.667,5.667,0,0,0,3.452,2.712c1.749.575,6.023.892,11.188-1.1,5.788-2.242,10.308-8.465,8.981-13.666C36.175.459,27.394-1.279,19.093,1.668A41.785,41.785,0,0,0,4.946,9.781c-4.579,4.273-5.307,8.007-5,9.557,1.068,5.53,8.688,9.134,11.74,11.8-.153.082-.294.164-.423.235-1.526.751-7.338,3.792-8.793,7.009C.825,42.019,2.727,44.637,4,44.99a9.382,9.382,0,0,0,10.108-4.1,10.138,10.138,0,0,0,.9-9.333l-.035-.07,1.2-.7c.775-.458,1.538-.881,2.207-1.245a14.617,14.617,0,0,0-.786,3.992c-.164,2.066.681,4.743,1.8,5.8a1.987,1.987,0,0,0,1.444.47c1.291,0,1.878-1.068,2.524-2.348.8-1.561,1.5-3.369,1.5-3.369s-.881,4.9,1.526,4.9c.881,0,1.761-1.139,2.16-1.726v.012s.023-.035.07-.117.1-.147.141-.223V36.9c.352-.611,1.139-2.008,2.313-4.32,1.514-2.982,2.97-6.715,2.97-6.715a21.429,21.429,0,0,0,.575,2.418A23.143,23.143,0,0,0,35.87,31.1c-.352.493-.564.775-.564.775l.012.012c-.282.376-.6.775-.927,1.174A34.121,34.121,0,0,0,31.573,36.6a.967.967,0,0,0,.258,1.291,2.35,2.35,0,0,0,1.479.235,6.59,6.59,0,0,0,2.207-.5,7.644,7.644,0,0,0,1.9-1,4.234,4.234,0,0,0,1.82-3.745,7.53,7.53,0,0,0-.693-2.642c.106-.153.211-.305.317-.47a49.559,49.559,0,0,0,3.287-5.694,21.429,21.429,0,0,0,.575,2.418,16.955,16.955,0,0,0,1.068,2.419A10.437,10.437,0,0,0,40.59,33.05c-.693,2-.153,2.9.869,3.111a3.125,3.125,0,0,0,1.608-.329A7.288,7.288,0,0,0,45.1,34.788a4.593,4.593,0,0,0,2.242-3.71,7.112,7.112,0,0,0-.5-2.2,11.438,11.438,0,0,1,5.823-.669c5.224.61,6.258,3.874,6.058,5.236A3.507,3.507,0,0,1,57.061,35.8c-.364.223-.481.305-.446.47.047.247.211.235.528.188a4.064,4.064,0,0,0,2.841-3.628c.141-3.229-2.923-6.751-8.359-6.716ZM11.333,39.695c-1.726,1.89-4.156,2.606-5.189,2-1.115-.646-.681-3.428,1.444-5.436a27.624,27.624,0,0,1,4.074-3.041c.247-.153.622-.376,1.068-.646a1.252,1.252,0,0,1,.117-.07c.082-.047.176-.106.27-.164A7.489,7.489,0,0,1,11.333,39.695Zm12.621-8.582c-.6,1.468-1.867,5.236-2.63,5.025-.658-.176-1.057-3.029-.129-5.847a13.052,13.052,0,0,1,2.055-3.769c.951-1.057,1.984-1.409,2.243-.974C25.8,26.111,24.329,30.2,23.954,31.113Zm10.414,4.978c-.258.129-.493.223-.6.153-.082-.047.106-.223.106-.223s1.3-1.4,1.82-2.043c.294-.376.646-.81,1.021-1.3v.141c0,1.69-1.62,2.818-2.348,3.275Zm8.03-1.831c-.188-.141-.164-.575.47-1.937a7.259,7.259,0,0,1,1.785-2.3,2.9,2.9,0,0,1,.176,1.01A3.3,3.3,0,0,1,42.4,34.259Z" transform="translate(311.116 348.455)" fill="#cf649a"/>
        </g>
      </g>
    </g>
  </g>
</svg>
