<svg id="bootstrap" xmlns="http://www.w3.org/2000/svg" width="512" height="512" viewBox="0 0 512 512">
  <path id="Path_329" data-name="Path 329" d="M0,445.982A66.016,66.016,0,0,0,66.02,512H445.98A66.018,66.018,0,0,0,512,445.979V66.02A66.018,66.018,0,0,0,445.979,0H66.02A66.018,66.018,0,0,0,0,66.021V445.98Z" fill="#563d7c"/>
  <path id="Path_330" data-name="Path 330" d="M140.241,175.976V103.47h63.822a99.275,99.275,0,0,1,17.584,1.52,43.888,43.888,0,0,1,14.98,5.426,28.941,28.941,0,0,1,10.42,10.854q3.906,6.948,3.908,17.8,0,19.539-11.724,28.222t-29.958,8.684H140.241ZM72.075,50.5v310H222.3a158.494,158.494,0,0,0,40.6-5.21,108.574,108.574,0,0,0,35.168-16.064,79.128,79.128,0,0,0,24.53-28q9.12-17.151,9.118-40.6,0-29.091-14.11-49.712T274.833,192.04q20.841-9.984,31.48-25.616t10.636-39.076q0-21.708-7.164-36.47A59.578,59.578,0,0,0,289.6,67.216q-13.023-8.9-31.26-12.808A192.992,192.992,0,0,0,217.957,50.5Zm68.166,257.03v-85.1h74.242q22.143,0,35.6,10.2t13.46,34.082q0,12.159-4.126,19.972a32.763,32.763,0,0,1-11.072,12.374,46.887,46.887,0,0,1-16.064,6.514,91.146,91.146,0,0,1-19.1,1.952h-72.94Z" transform="translate(72.075 50.5)" fill="#fff"/>
</svg>
