<svg xmlns="http://www.w3.org/2000/svg" width="370.402" height="513" viewBox="0 0 370.402 513">
  <g id="firebase" transform="translate(0 -0.05)">
    <path id="Path_103" data-name="Path 103" d="M792.633,464.8l-51.307,47.771-47.626-96.1,24.6-55.254c6.218-11.023,16.389-11.168,22.606,0Z" transform="translate(-549.428 -279.456)" fill="#ffa000"/>
    <path id="Path_104" data-name="Path 104" d="M191.919,754.684,0,933.188,144.292,658.6Z" transform="translate(0 -521.588)" fill="#f57f17"/>
    <path id="Path_105" data-name="Path 105" d="M299.462,520.531c9.192-8.755,18.655-5.8,21.047,6.635L370.4,817.435,204.917,916.785c-5.8,3.245-21.192,4.513-21.192,4.513s-14-1.705-19.363-4.659L0,819.847Z" transform="translate(0 -408.248)" fill="#ffca28"/>
    <path id="Path_106" data-name="Path 106" d="M144.292,137.012,0,411.6,64.307,10.252C66.718-2.187,73.769-3.454,80.132,7.568Z" transform="translate(0 0)" fill="#ffa000"/>
  </g>
</svg>
