<svg xmlns="http://www.w3.org/2000/svg" width="539.832" height="512.471" viewBox="0 0 539.832 512.471">
  <g id="redux_logo" transform="translate(-11.15 -13.3)">
    <path id="Path_124" data-name="Path 124" d="M385.2,167.531a38.585,38.585,0,0,0-4.122-76.939H379.7a38.434,38.434,0,0,0-37.1,39.844A39.451,39.451,0,0,0,353.6,155.853c-23.357,46.026-59.078,79.687-112.661,107.853-36.409,19.235-74.192,26.1-111.974,21.3C98.048,280.879,74,267.14,58.891,244.47c-21.983-33.661-24.044-70.07-5.5-106.479,13.052-26.1,33.661-45.339,46.713-54.957C97.361,74.1,93.239,58.991,91.179,48-8.431,120.131,1.874,217.679,32.1,263.705c22.67,34.348,68.7,55.644,119.531,55.644a168.878,168.878,0,0,0,41.218-4.809C280.779,297.366,347.414,245.157,385.2,167.531Z" transform="translate(0 203.675)" fill="#764abc"/>
    <path id="Path_125" data-name="Path 125" d="M339.719,151.609C287.51,90.47,210.57,56.809,122.64,56.809H111.648A37.748,37.748,0,0,0,77.987,36.2H76.613a38.482,38.482,0,0,0,1.374,76.939h1.374a38.7,38.7,0,0,0,33.661-23.357h12.365c52.209,0,101.67,15.113,146.322,44.652,34.348,22.67,59.078,52.209,72.818,87.931,11.678,28.852,10.991,57.018-1.374,81.061-19.235,36.409-51.522,56.331-94.113,56.331-27.478,0-53.583-8.243-67.322-14.426-7.557,6.87-21.3,17.861-30.913,24.73,29.539,13.739,59.765,21.3,88.618,21.3,65.948,0,114.722-36.409,133.27-72.818C392.615,278.7,391.241,210,339.719,151.609Z" transform="translate(166.383 134.414)" fill="#764abc"/>
    <path id="Path_126" data-name="Path 126" d="M64.993,382.884a38.587,38.587,0,0,0,38.47,37.1h1.374a38.482,38.482,0,0,0-1.374-76.939h-1.374a11.691,11.691,0,0,0-4.809.687c-28.165-46.713-39.844-97.548-35.722-152.5C64.306,150,78.045,114.283,102.089,84.744c19.922-25.417,58.392-37.783,84.5-38.47,72.818-1.374,103.731,89.3,105.792,125.714,8.93,2.061,24.044,6.87,34.348,10.3C318.481,71,249.785,13.3,183.837,13.3c-61.826,0-118.844,44.652-141.514,110.6C10.723,211.831,31.332,296.327,69.8,362.962c-3.435,4.809-5.5,12.365-4.809,19.922Z" transform="translate(92.134 0)" fill="#764abc"/>
  </g>
</svg>
