<svg xmlns="http://www.w3.org/2000/svg" width="451" height="338.058" viewBox="0 0 451 338.058">
  <path id="sass-1" d="M388.127,194.363a92.914,92.914,0,0,0-40.875,9.515c-4.228-8.369-8.457-15.682-9.161-21.142-.793-6.343-1.762-10.22-.793-17.795s5.373-18.324,5.373-19.205c-.089-.793-.97-4.669-10.043-4.757s-16.914,1.762-17.795,4.14a101.178,101.178,0,0,0-3.788,13.478c-1.586,8.281-18.147,37.616-27.573,53.032-3.083-5.99-5.726-11.276-6.256-15.505-.792-6.342-1.762-10.219-.792-17.794s5.374-18.323,5.374-19.2c-.088-.793-.969-4.669-10.042-4.757s-16.914,1.762-17.795,4.14-1.85,8.017-3.788,13.478c-1.851,5.462-23.874,54.442-29.6,67.215-2.907,6.519-5.461,11.716-7.312,15.24s-.088.264-.264.617c-1.586,3-2.467,4.669-2.467,4.669v.089c-1.233,2.2-2.555,4.316-3.172,4.316-.44,0-1.321-5.9.176-14.006,3.259-17,11.188-43.518,11.1-44.487,0-.44,1.5-5.11-5.11-7.488-6.431-2.379-8.72,1.586-9.25,1.586s-.969,1.41-.969,1.41,7.136-29.863-13.655-29.863c-13.038,0-31.009,14.183-39.906,27.133-5.638,3.083-17.619,9.6-30.3,16.562-4.845,2.643-9.866,5.462-14.624,8.017l-.968-1.059c-25.195-26.869-71.8-45.9-69.858-82.015.7-13.126,5.286-47.747,89.5-89.679,68.977-34.357,124.212-24.93,133.813-3.964C270.962,76.23,227.8,131.9,156.089,139.921c-27.309,3.083-41.669-7.488-45.28-11.452-3.788-4.14-4.317-4.317-5.726-3.524-2.29,1.233-.881,4.933,0,7.136,2.114,5.55,10.924,15.416,25.9,20.35,13.125,4.317,45.192,6.7,83.953-8.281,43.43-16.826,77.346-63.515,67.392-102.541C272.2,1.879,206.3-11.159,144.02,10.952,106.932,24.166,66.761,44.78,37.866,71.825,3.51,103.891-1.952,131.9.339,143.533c8.017,41.492,65.189,68.537,88.094,88.534-1.145.616-2.2,1.232-3.171,1.762C73.809,239.466,30.2,262.283,19.279,286.42c-12.333,27.309,1.938,46.955,11.452,49.6,29.423,8.193,59.551-6.519,75.849-30.745,16.208-24.226,14.271-55.675,6.783-70.034l-.265-.529,8.986-5.286c5.815-3.436,11.541-6.607,16.562-9.339-2.818,7.664-4.845,16.738-5.9,29.952-1.233,15.505,5.109,35.59,13.478,43.518,3.7,3.435,8.1,3.524,10.836,3.524,9.69,0,14.095-8.017,18.94-17.619,5.99-11.716,11.276-25.283,11.276-25.283s-6.607,36.735,11.452,36.735c6.607,0,13.214-8.545,16.209-12.95v.088s.176-.264.529-.881q.554-.82,1.057-1.673v-.176c2.643-4.581,8.545-15.064,17.354-32.418,11.363-22.376,22.288-50.39,22.288-50.39a160.793,160.793,0,0,0,4.317,18.147c1.937,6.7,6.166,14.007,9.425,21.142-2.643,3.7-4.228,5.815-4.228,5.815l.088.088c-2.113,2.819-4.493,5.815-6.958,8.809-8.986,10.747-19.733,22.993-21.142,26.517-1.674,4.14-1.321,7.223,1.938,9.69,2.379,1.762,6.607,2.113,11.1,1.762a49.446,49.446,0,0,0,16.562-3.789,57.358,57.358,0,0,0,14.271-7.488c8.809-6.518,14.183-15.768,13.654-28.1-.264-6.783-2.467-13.478-5.2-19.821.793-1.145,1.587-2.291,2.379-3.524a371.862,371.862,0,0,0,24.666-42.725,160.8,160.8,0,0,0,4.317,18.147c1.673,5.726,5.021,11.982,8.017,18.148-13.038,10.659-21.231,22.992-24.05,31.1-5.2,14.976-1.145,21.759,6.519,23.345,3.435.7,8.369-.881,12.068-2.467a54.688,54.688,0,0,0,15.241-7.84c8.809-6.519,17.266-15.593,16.826-27.838a53.366,53.366,0,0,0-3.788-16.473c11.1-4.581,25.458-7.224,43.694-5.021,39.2,4.581,46.954,29.071,45.457,39.29s-9.69,15.857-12.422,17.619c-2.731,1.674-3.612,2.291-3.348,3.524.352,1.851,1.586,1.762,3.964,1.41,3.259-.529,20.614-8.369,21.319-27.22,1.057-24.229-21.935-50.657-62.723-50.394ZM85.789,296.287C72.84,310.47,54.6,315.844,46.852,311.263c-8.369-4.845-5.11-25.723,10.836-40.787,9.69-9.162,22.288-17.619,30.568-22.816,1.85-1.145,4.669-2.818,8.017-4.845a9.4,9.4,0,0,1,.881-.529c.617-.352,1.321-.793,2.026-1.233,5.9,21.495.264,40.347-13.39,55.235Zm94.7-64.4c-4.493,11.012-14.007,39.29-19.733,37.7-4.934-1.321-7.928-22.728-.97-43.871,3.524-10.66,11.012-23.345,15.416-28.279,7.136-7.928,14.888-10.571,16.827-7.312C194.321,194.363,183.309,225.02,180.49,231.891Zm78.139,37.352c-1.938.97-3.7,1.674-4.493,1.146-.617-.352.792-1.674.792-1.674s9.778-10.483,13.655-15.328c2.2-2.818,4.845-6.078,7.664-9.778v1.057c0,12.685-12.156,21.142-17.618,24.577ZM318.884,255.5c-1.41-1.057-1.232-4.317,3.524-14.535A54.467,54.467,0,0,1,335.8,223.7a21.792,21.792,0,0,1,1.321,7.576C337.032,247.131,325.756,253.033,318.884,255.5Z" transform="translate(0.116 -0.241)" fill="#cf649a"/>
</svg>
