<svg xmlns="http://www.w3.org/2000/svg" width="512" height="383.784" viewBox="0 0 512 383.784">
  <path id="sass-1" d="M440.638,220.618a105.481,105.481,0,0,0-46.4,10.8c-4.8-9.5-9.6-17.8-10.4-24-.9-7.2-2-11.6-.9-20.2s6.1-20.8,6.1-21.8c-.1-.9-1.1-5.3-11.4-5.4s-19.2,2-20.2,4.7a114.863,114.863,0,0,0-4.3,15.3c-1.8,9.4-20.6,42.7-31.3,60.2-3.5-6.8-6.5-12.8-7.1-17.6-.9-7.2-2-11.6-.9-20.2s6.1-20.8,6.1-21.8c-.1-.9-1.1-5.3-11.4-5.4s-19.2,2-20.2,4.7-2.1,9.1-4.3,15.3c-2.1,6.2-27.1,61.805-33.6,76.306-3.3,7.4-6.2,13.3-8.3,17.3s-.1.3-.3.7c-1.8,3.406-2.8,5.3-2.8,5.3v.1c-1.4,2.5-2.9,4.9-3.6,4.9-.5,0-1.5-6.7.2-15.9,3.7-19.3,12.7-49.4,12.6-50.5,0-.5,1.7-5.8-5.8-8.5-7.3-2.7-9.9,1.8-10.5,1.8s-1.1,1.6-1.1,1.6,8.1-33.9-15.5-33.9c-14.8,0-35.2,16.1-45.3,30.8-6.4,3.5-20,10.9-34.4,18.8-5.5,3-11.2,6.2-16.6,9.1l-1.1-1.2c-28.6-30.5-81.511-52.108-79.306-93.108.795-14.9,6-54.2,101.605-101.808,78.306-39,141.012-28.3,151.911-4.5,15.5,34-33.5,97.2-114.908,106.3-31,3.5-47.3-8.5-51.4-13-4.3-4.7-4.9-4.9-6.5-4-2.6,1.4-1,5.6,0,8.1,2.4,6.3,12.4,17.5,29.4,23.1,14.9,4.9,51.3,7.606,95.308-9.4,49.3-19.1,87.807-72.106,76.507-116.41-11.5-45.1-86.311-59.9-157.014-34.8C121.41,27.4,75.806,50.8,43,81.507,4,117.91-2.2,149.707.4,162.914c9.1,47.1,74.006,77.807,100.009,100.508-1.3.7-2.5,1.4-3.6,2-13,6.4-62.509,32.3-74.907,59.7-14,31,2.2,53.306,13,56.309,33.4,9.3,67.605-7.4,86.108-34.9,18.4-27.5,16.2-63.205,7.7-79.506l-.3-.6,10.2-6c6.6-3.9,13.1-7.5,18.8-10.6-3.2,8.7-5.5,19-6.7,34-1.4,17.6,5.8,40.4,15.3,49.4,4.2,3.9,9.2,4,12.3,4,11,0,16-9.1,21.5-20,6.8-13.3,12.8-28.7,12.8-28.7s-7.5,41.7,13,41.7c7.5,0,15-9.7,18.4-14.7v.1s.2-.3.6-1q.629-.931,1.2-1.9v-.2c3-5.2,9.7-17.1,19.7-36.8,12.9-25.4,25.3-57.205,25.3-57.205a182.536,182.536,0,0,0,4.9,20.6c2.2,7.606,7,15.9,10.7,24-3,4.2-4.8,6.6-4.8,6.6l.1.1c-2.4,3.2-5.1,6.6-7.9,10-10.2,12.2-22.4,26.1-24,30.1-1.9,4.7-1.5,8.2,2.2,11,2.7,2,7.5,2.4,12.6,2a56.133,56.133,0,0,0,18.8-4.3,65.116,65.116,0,0,0,16.2-8.5c10-7.4,16.1-17.9,15.5-31.9-.3-7.7-2.8-15.3-5.9-22.5.9-1.3,1.8-2.6,2.7-4a422.148,422.148,0,0,0,28-48.5,182.542,182.542,0,0,0,4.9,20.6c1.9,6.5,5.7,13.6,9.1,20.6-14.8,12.1-24.1,26.1-27.3,35.306-5.9,17-1.3,24.7,7.4,26.5,3.9.795,9.5-1,13.7-2.8a62.085,62.085,0,0,0,17.3-8.9c10-7.4,19.6-17.7,19.1-31.6a60.584,60.584,0,0,0-4.3-18.7c12.6-5.2,28.9-8.2,49.6-5.7,44.5,5.2,53.3,33,51.605,44.6s-11,18-14.1,20c-3.1,1.9-4.1,2.6-3.8,4,.4,2.1,1.8,2,4.5,1.6,3.7-.6,23.4-9.5,24.2-30.9,1.2-27.506-24.9-57.508-71.206-57.21ZM97.408,336.328c-14.7,16.1-35.407,22.2-44.2,17-9.5-5.5-5.8-29.2,12.3-46.3,11-10.4,25.3-20,34.7-25.9,2.1-1.3,5.3-3.2,9.1-5.5a10.679,10.679,0,0,1,1-.6c.7-.4,1.5-.9,2.3-1.4,6.7,24.4.3,45.8-15.2,62.706Zm107.508-73.11c-5.1,12.5-15.9,44.6-22.4,42.8-5.6-1.5-9-25.8-1.1-49.8,4-12.1,12.5-26.5,17.5-32.1,8.1-9,16.9-12,19.1-8.3,2.6,4.811-9.9,39.615-13.1,47.415Zm88.707,42.4c-2.2,1.1-4.2,1.9-5.1,1.3-.7-.4.9-1.9.9-1.9s11.1-11.9,15.5-17.4c2.5-3.2,5.5-6.9,8.7-11.1v1.2C313.624,292.121,299.824,301.722,293.624,305.622Zm68.406-15.6c-1.6-1.2-1.4-4.9,4-16.5a61.834,61.834,0,0,1,15.2-19.6,24.739,24.739,0,0,1,1.5,8.6C382.632,280.523,369.831,287.224,362.029,290.024Z" transform="translate(0.115 -0.241)" fill="#cf649a"/>
</svg>
