<svg xmlns="http://www.w3.org/2000/svg" width="512" height="304.771" viewBox="0 0 512 304.771">
  <g id="woocommerce" transform="translate(0)">
    <path id="Path_329" data-name="Path 329" d="M47.518,0H464.27A47.7,47.7,0,0,1,512,47.726V206.808a47.7,47.7,0,0,1-47.726,47.726H314.82l20.514,50.236-90.218-50.236H47.726A47.7,47.7,0,0,1,0,206.808V47.726A47.523,47.523,0,0,1,47.518,0Z" transform="translate(0 0)" fill="#9b5c8f"/>
    <path id="Path_330" data-name="Path 330" d="M16.373,29.381c2.914-3.956,7.284-6.036,13.112-6.452Q45.41,21.681,47.594,37.915q9.678,65.25,21.02,110.518l45.58-86.79q6.244-11.865,15.612-12.488c9.158-.624,14.776,5.2,17.066,17.483,5.2,27.68,11.865,51.2,19.772,71.18q8.118-79.3,27.473-114.47c3.12-5.828,7.7-8.741,13.737-9.16a18.09,18.09,0,0,1,13.112,4.164,16.3,16.3,0,0,1,6.452,11.865,18.072,18.072,0,0,1-2.08,9.99c-8.118,14.985-14.78,40.17-20.191,75.135-5.2,33.926-7.076,60.36-5.828,79.3a24.7,24.7,0,0,1-2.5,13.737,13.416,13.416,0,0,1-11.032,7.493c-5.412.415-11.03-2.08-16.442-7.7q-29.034-29.661-46-88.663-20.295,39.961-29.971,59.941C81.1,202.969,70.7,215.041,61.953,215.663c-5.62.415-10.406-4.372-14.568-14.36Q31.464,160.4,13.046,43.326a17.719,17.719,0,0,1,3.329-13.944ZM463.646,62.058c-7.493-13.112-18.524-21.02-33.3-24.143a54.671,54.671,0,0,0-11.239-1.249c-19.98,0-36.215,10.406-48.91,31.22a110.266,110.266,0,0,0-16.234,58.693q0,24.039,9.99,41.21c7.493,13.112,18.524,21.02,33.3,24.142a54.526,54.526,0,0,0,11.239,1.249c20.188,0,36.422-10.406,48.91-31.22a111.537,111.537,0,0,0,16.234-58.9c.208-16.234-3.33-29.764-9.99-41Zm-26.224,57.652c-2.914,13.737-8.118,23.935-15.82,30.8-6.034,5.412-11.655,7.7-16.856,6.661-5-1.04-9.16-5.409-12.28-13.528a52.769,52.769,0,0,1-3.746-18.939,72.41,72.41,0,0,1,1.456-15.192,67.321,67.321,0,0,1,11.03-24.768c6.871-10.2,14.154-14.36,21.646-12.9,5,1.04,9.16,5.412,12.28,13.528a52.814,52.814,0,0,1,3.746,18.939,73.043,73.043,0,0,1-1.456,15.4ZM333.356,62.058c-7.493-13.112-18.732-21.02-33.3-24.143a54.657,54.657,0,0,0-11.239-1.249c-19.98,0-36.215,10.406-48.91,31.22a110.284,110.284,0,0,0-16.234,58.693q0,24.039,9.99,41.21c7.493,13.112,18.524,21.02,33.3,24.142a54.538,54.538,0,0,0,11.239,1.249c20.188,0,36.422-10.406,48.91-31.22a111.518,111.518,0,0,0,16.234-58.9c0-16.234-3.33-29.764-9.99-41Zm-26.432,57.652c-2.914,13.737-8.118,23.935-15.818,30.8-6.036,5.412-11.656,7.7-16.86,6.661-5-1.04-9.156-5.409-12.28-13.528A52.851,52.851,0,0,1,258.22,124.7a72.407,72.407,0,0,1,1.457-15.192,67.3,67.3,0,0,1,11.032-24.768c6.868-10.2,14.152-14.36,21.644-12.9,5,1.04,9.16,5.412,12.28,13.528a52.769,52.769,0,0,1,3.746,18.939,61.4,61.4,0,0,1-1.457,15.4Z" transform="translate(12.782 14.119)" fill="#fff"/>
  </g>
</svg>
