<svg xmlns="http://www.w3.org/2000/svg" width="512" height="261.452" viewBox="0 0 512 261.452">
  <g id="materialize" transform="translate(-0.03 -0.279)">
    <path id="Path_118" data-name="Path 118" d="M97.495,8.11c1.854-3.153,4.264-6.182,7.727-7.668A24.691,24.691,0,0,1,109.486.32h69.98a23.146,23.146,0,0,0-5.377,5.872c-3.585,5.874-6,12.426-8.222,18.979-6.306,19.785-10.7,40.123-14.963,60.462q-2.881,13.821-5.5,27.7c-5.319,30.169-10.818,60.274-17.681,90.133-3.275,13.787-6.614,27.572-11.683,40.863-2.35,5.5-4.636,11.377-9.149,15.455-1.051.929-2.1,2.1-3.587,1.921H41.485c-4.2-.124-8.348.246-12.55-.186a24.508,24.508,0,0,0,6.863-7.851c4.636-8.842,7.541-18.424,10.324-27.945,4.328-15.331,7.787-30.848,11.066-46.365,2.04-10.2,4.45-20.339,5.934-30.6,1.67-11.437,4.2-22.754,6.244-34.125,3.215-16.754,6.614-33.506,10.386-50.136,3.029-12.983,6.12-25.905,10.262-38.577A97.762,97.762,0,0,1,97.5,8.11Z" transform="translate(28.961)" fill="#eb7077"/>
    <path id="Path_119" data-name="Path 119" d="M121.178.323c1.791,0,3.584-.062,5.377,0A20.522,20.522,0,0,1,135.7,9.9a119.689,119.689,0,0,1,6.366,14.714c6.184,19.1,10.388,38.762,14.592,58.361q5.375,26.336,10.2,52.857c.248.927-.06,2.226,1.175,2.473-4.452,23.244-8.841,46.551-14.406,69.611-3.029,12.426-6.246,24.79-10.818,36.783-2.474,6-5.009,12.548-10.264,16.816-3.337.739-5.75-1.794-7.787-4.082-3.523-4.512-5.688-9.83-7.792-15.144-6.986-19.038-11.251-38.883-15.577-58.666-3.277-15.395-6.184-30.91-9.213-46.365-1.362-7.854-3.213-15.581-4.264-23.431-.186-.124-.621-.369-.8-.494q2.617-13.875,5.5-27.7c4.266-20.339,8.656-40.679,14.963-60.46C109.8,18.624,112.212,12.072,115.8,6.2A23.159,23.159,0,0,1,121.176.323Z" transform="translate(87.253 -0.002)" fill="#f6a2ad"/>
    <path id="Path_120" data-name="Path 120" d="M175.774,11.012C178,6.748,180.723,1.988,185.543.38,210.086.255,234.63.317,259.171.317c-2.29,2.286-4.7,4.574-6.246,7.479-4.758,8.536-7.541,17.992-10.384,27.326-7.3,25.717-12.426,51.99-17.31,78.263-4.512,25.905-9.335,51.806-14.836,77.587-2.843,12.981-5.812,25.9-9.581,38.7-2.412,7.913-4.944,15.889-8.9,23.246-1.921,3.337-4.144,6.986-7.789,8.717-23.43.186-46.923,0-70.352.06a28.482,28.482,0,0,1-3.957-.184c5.255-4.264,7.789-10.818,10.264-16.816,4.574-11.991,7.787-24.355,10.818-36.782,5.564-23.06,9.952-46.365,14.406-69.611,5.377-29.983,11.007-59.966,18.173-89.578,3.337-12.8,6.552-25.782,12.3-37.71Z" transform="translate(109.993 0.004)" fill="#eb7077"/>
    <path id="Path_121" data-name="Path 121" d="M201.4.323c1.978,0,4.018-.062,6,0,3.215,1.67,5.5,4.512,7.543,7.417,3.337,5.319,5.439,11.315,7.6,17.186,5.131,15.765,8.965,31.963,12.485,48.158,4.7,21.823,8.779,43.77,12.8,65.716.989,5.255,1.978,10.57,2.6,15.889l.927.927c-2.224,3.091-3.091,6.8-4.326,10.324-3.9,12.55-6.427,25.533-8.595,38.453a207.04,207.04,0,0,1-7.109,29.983c-2.348,7.233-5.193,14.406-9.89,20.463a22.065,22.065,0,0,1-8.595,6.614c-5.131.556-8.162-4.388-10.634-8.036-5.131-8.965-7.911-18.979-10.88-28.748-9.768-36.165-16.136-73.195-23-109.978a1.625,1.625,0,0,0-.867-1.3c4.885-26.274,10.016-52.547,17.31-78.263,2.843-9.335,5.626-18.794,10.386-27.326C196.7,4.9,199.114,2.61,201.4.324Z" transform="translate(167.76 -0.002)" fill="#f6a2ad"/>
    <path id="Path_122" data-name="Path 122" d="M.03,70.747c1.61-.124,3.217-.369,4.885-.369H72.3c2.843.369,5.812.124,8.533,1.362a24.309,24.309,0,0,1,10.076,7.727c.31-.186.867-.68,1.175-.929C90.6,88.8,88.19,98.938,86.15,109.14c-3.277,15.514-6.738,31.034-11.066,46.365-2.783,9.521-5.688,19.1-10.324,27.943A24.526,24.526,0,0,1,57.9,191.3c-1.051.186-1.854-.556-2.721-1.113-2.9-1.854-4.574-5.069-6.366-7.973-8.471-19.289-9.4-40.617-14.652-60.77C31.5,111.366,28.222,101.348,23.4,92.077A54.4,54.4,0,0,0,12.025,76.933,30.887,30.887,0,0,0,.032,70.747Z" transform="translate(0 70.215)" fill="#f6a2ad"/>
    <path id="Path_123" data-name="Path 123" d="M234.087,77.255a20.163,20.163,0,0,1,15.579-6.924h50.693c7.047.124,14.156-.246,21.2.186-2.1,1.421-4.636,1.978-6.862,3.153a40.962,40.962,0,0,0-18.543,16.752c-6.738,11.746-9.087,25.225-11.066,38.453-1.978,12.983-1.916,26.4-6.12,39.006-2.843,8.841-7.171,17.741-14.652,23.553-23.243.248-46.489.062-69.671.124a21.928,21.928,0,0,1-4.512-.248,22.026,22.026,0,0,0,8.592-6.614c4.7-6.058,7.543-13.229,9.892-20.463a207.109,207.109,0,0,0,7.109-29.983c2.164-12.921,4.7-25.905,8.595-38.453,1.235-3.523,2.1-7.233,4.326-10.324C230.5,82.756,231.737,79.6,234.087,77.255Z" transform="translate(190.469 70.138)" fill="#eb7077"/>
  </g>
</svg>
