<svg xmlns="http://www.w3.org/2000/svg" xmlns:xlink="http://www.w3.org/1999/xlink" width="507.771" height="507.771" viewBox="0 0 507.771 507.771">
  <defs>
    <clipPath id="clip-path">
      <path id="Path_336" data-name="Path 336" d="M0,0H507.771V507.771H0Z"/>
    </clipPath>
  </defs>
  <g id="wordpress-blue" clip-path="url(#clip-path)">
    <path id="Path_331" data-name="Path 331" d="M897.166,85.568H809.08v9.349c27.555,0,31.986,5.906,31.986,40.845v63c0,34.941-4.421,41.344-31.986,41.344-21.152-2.955-35.434-14.273-55.12-35.929L731.316,179.57c30.507-5.42,46.744-24.609,46.744-46.268,0-27.062-23.125-47.734-66.437-47.734H625.012v9.349c27.555,0,31.986,5.906,31.986,40.845v63c0,34.941-4.427,41.344-31.986,41.344v9.349h97.934v-9.349c-27.552,0-31.986-6.4-31.986-41.344V181.056h8.368l54.627,68.4H897.168c70.375,0,100.892-37.4,100.892-82.189S967.544,85.568,897.166,85.568Zm-206.2,80.213V100.339h20.175c22.142,0,31.99,15.255,31.99,32.972,0,17.231-9.847,32.479-31.99,32.479Zm207.691,68.413h-3.448c-17.713,0-20.175-4.421-20.175-27.062v-106.8h23.614c51.182,0,60.524,37.4,60.524,66.437,0,30.017-9.345,67.424-60.524,67.424ZM350.9,184.006,384.855,83.6c9.847-29.035,5.421-37.4-26.08-37.4V36.351H451.3V46.2c-31,0-38.385,7.376-50.685,43.3L344.5,257.818h-6.394L287.9,103.774,236.723,257.818h-6.4L175.694,89.506c-11.811-35.929-19.686-43.3-48.231-43.3V36.355H236.716V46.2c-29.044,0-36.917,6.887-26.58,37.4l32.979,100.408,49.7-147.649h9.349L350.891,184Zm167.32,71.839c-54.133,0-98.427-39.859-98.427-88.589,0-48.231,44.293-88.1,98.427-88.1s98.427,39.865,98.427,88.1C616.648,215.984,572.358,255.845,518.221,255.845Zm0-161.416c-45.278,0-61.028,40.838-61.028,72.831,0,32.486,15.765,72.84,61.028,72.84,45.775,0,61.523-40.352,61.523-72.84,0-31.993-15.748-72.831-61.523-72.831Z" transform="translate(400.783 114.297)" fill="#00749a"/>
    <path id="Path_332" data-name="Path 332" d="M452.369,239.61v9.838H339.67v-9.842c32.976,0,38.882-8.368,38.882-57.589v-78.73c0-49.223-5.906-57.088-38.882-57.088V36.35H441.541c50.685,0,78.75,26.083,78.75,61.033,0,33.958-28.061,60.531-78.75,60.531H413.484v24.107c0,49.226,5.906,57.589,38.886,57.589ZM441.541,54.067H413.484V139.7h28.057c27.559,0,40.352-19.193,40.352-42.321C481.9,73.76,469.1,54.067,441.541,54.067ZM858.39,203.2l-2.465,8.856c-4.422,16.241-9.848,22.148-44.786,22.148h-6.9c-25.587,0-30.017-5.906-30.017-40.842V170.72c38.389,0,41.344,3.439,41.344,29.035h9.349V126.418h-9.349c0,25.59-2.955,29.035-41.344,29.035V100.338h27.062c34.948,0,40.358,5.906,44.786,22.148l2.469,9.349H856.4l-3.435-46.266H708.271v9.349c27.555,0,31.99,5.906,31.99,40.845v63c0,31.966-3.76,40.017-25.48,41.17-20.652-3.158-34.829-14.417-54.229-35.757l-22.641-24.6c30.514-5.42,46.755-24.609,46.755-46.268,0-27.062-23.13-47.734-66.437-47.734h-86.62v9.349c27.555,0,31.99,5.906,31.99,40.845v63c0,34.941-4.427,41.344-31.99,41.344v9.349h97.93v-9.349c-27.552,0-31.99-6.4-31.99-41.344V181.055h8.372l54.627,68.4H862.82l2.955-46.255h-7.393ZM597.551,165.784V100.342h20.175c22.148,0,31.993,15.255,31.993,32.972,0,17.231-9.848,32.479-31.993,32.479Zm360.732,90.064c-19.686,0-36.913-10.331-44.293-16.734a35.317,35.317,0,0,0-7.87,16.734h-9.349V187.935h9.842c3.941,32.483,26.58,51.675,55.613,51.675,15.748,0,28.545-8.861,28.545-23.618,0-12.793-11.314-22.641-31.5-31.99l-28.061-13.286c-19.689-9.349-34.448-25.6-34.448-47.248,0-23.623,22.147-43.8,52.661-43.8a61.633,61.633,0,0,1,38.389,12.8c2.458-1.972,4.924-7.386,6.4-13.3h9.349v58.078H993.227c-3.448-23.134-16.241-42.326-42.321-42.326-13.78,0-26.58,7.87-26.58,20.183,0,12.793,10.331,19.682,33.958,30.507l27.06,13.279c23.627,11.318,32.972,29.537,32.972,44.3,0,31-27.066,52.649-60.038,52.649Zm151.578,0c-19.689,0-36.917-10.331-44.293-16.734a35.321,35.321,0,0,0-7.866,16.734h-9.349V187.935h9.844c3.938,32.483,26.569,51.675,55.613,51.675,15.748,0,28.545-8.861,28.545-23.618,0-12.793-11.318-22.641-31.5-31.99L1082.8,170.717c-19.686-9.349-34.448-25.6-34.448-47.248,0-23.623,22.148-43.8,52.661-43.8a61.642,61.642,0,0,1,38.389,12.8c2.458-1.972,4.92-7.386,6.39-13.3h9.349v58.078h-10.331c-3.448-23.134-16.241-42.326-42.321-42.326-13.779,0-26.58,7.87-26.58,20.183,0,12.793,10.335,19.682,33.962,30.507L1136.93,158.9c23.623,11.318,32.968,29.537,32.968,44.3,0,31-27.066,52.649-60.034,52.649Z" transform="translate(1068.02 114.295)" fill="#464342"/>
    <g id="Group_63" data-name="Group 63">
      <path id="Path_333" data-name="Path 333" d="M8.708,226.5A217.853,217.853,0,0,0,131.483,422.533L27.565,137.863A216.969,216.969,0,0,0,8.708,226.5Zm364.83-11c0-26.917-9.668-45.558-17.964-60.067-11.041-17.941-21.385-33.133-21.385-51.074,0-20.021,15.18-38.658,36.569-38.658.966,0,1.881.121,2.827.174a217.757,217.757,0,0,0-329.054,41c5.111.154,9.93.257,14.016.257,22.782,0,58.045-2.764,58.045-2.764,11.732-.693,13.125,16.553,1.4,17.941,0,0-11.8,1.388-24.93,2.077l79.313,235.921,47.661-142.949-33.931-92.977c-11.732-.687-22.839-2.077-22.839-2.077-11.732-.687-10.361-18.634,1.377-17.941,0,0,35.967,2.764,57.376,2.764,22.776,0,58.045-2.764,58.045-2.764,11.748-.693,13.129,16.553,1.4,17.941,0,0-11.824,1.388-24.93,2.077l78.708,234.128,21.72-72.591c9.413-30.123,16.579-51.767,16.579-70.411Z" transform="translate(27.38 27.379)" fill="#00749a"/>
      <path id="Path_334" data-name="Path 334" d="M111.763,159.594,46.416,349.477a217.857,217.857,0,0,0,133.852-3.468,18.447,18.447,0,0,1-1.551-3ZM299.051,36.043a167.15,167.15,0,0,1,1.467,22.4c0,22.1-4.128,46.946-16.56,78.012L217.428,328.8c102.028-59.353,138.223-189.168,81.623-292.749Z" transform="translate(145.945 113.337)" fill="#00749a"/>
      <path id="Path_335" data-name="Path 335" d="M253.885,0C113.9,0,0,113.889,0,253.885S113.893,507.771,253.885,507.771s253.9-113.882,253.9-253.885S393.872,0,253.885,0Zm0,496.134c-133.567,0-242.243-108.676-242.243-242.249s108.67-242.24,242.243-242.24,242.236,108.667,242.236,242.24S387.449,496.134,253.885,496.134Z" fill="#00749a"/>
    </g>
  </g>
</svg>
